# xmcd
#
# Track frame offsets:
#       150
#       17619
#       41051
#       57956
#       88603
#       115590
#       138962
#       161794
#       184454
#       210371
#       226763
#       242810
#       266819
#       291801
#
# Disc length: 4214 seconds
#
# Revision: 0
# Processed by: cddbd v1.5.1PL0 Copyright (c) Steve Scherf et al.
# Submitted via: CD-DA_X-Tractor v0.24
#
DISCID=c110740e
DTITLE=Blümchen - Jasmin
DYEAR=1900
DGENRE=Hardcore
TTITLE0=Ich bin wieder hier
TTITLE1=Automatisch
TTITLE2=Blaue augen
TTITLE3=Immer noch verliebt
TTITLE4=Willkommen in meinem garten
TTITLE5=Hand in hand (gewalt is doof!)
TTITLE6=Der beste von allen
TTITLE7=So wie ein wunder
TTITLE8=Nur für euch
TTITLE9=Heut´ ist mein tag
TTITLE10=Tu es mon île
TTITLE11=Blaue augen (augen auf mix)
TTITLE12=Ich bin wieder hier (grosser blauwal mix)
TTITLE13=Heut´ ist mein tag (extended mix)
EXTD=
EXTT0=
EXTT1=
EXTT2=
EXTT3=
EXTT4=
EXTT5=
EXTT6=
EXTT7=
EXTT8=
EXTT9=
EXTT10=
EXTT11=
EXTT12=
EXTT13=
PLAYORDER=
